<?xml version="1.0" encoding="UTF-8" standalone="no"?>
<svg
   version="1.1"
   id="Layer_1"
   x="0px"
   y="0px"
   viewBox="0 0 122.88 121.71"
   style="enable-background:new 0 0 122.88 121.71"
   xml:space="preserve"
   sodipodi:docname="black_castle.svg"
   inkscape:version="1.3.2 (091e20ef0f, 2023-11-25, custom)"
   xmlns:inkscape="http://www.inkscape.org/namespaces/inkscape"
   xmlns:sodipodi="http://sodipodi.sourceforge.net/DTD/sodipodi-0.dtd"
   xmlns="http://www.w3.org/2000/svg"
   xmlns:svg="http://www.w3.org/2000/svg"><defs
     id="defs1" /><sodipodi:namedview
     id="namedview1"
     pagecolor="#ffffff"
     bordercolor="#000000"
     borderopacity="0.25"
     inkscape:showpageshadow="2"
     inkscape:pageopacity="0.0"
     inkscape:pagecheckerboard="0"
     inkscape:deskcolor="#d1d1d1"
     inkscape:zoom="1.920573"
     inkscape:cx="61.439999"
     inkscape:cy="60.658982"
     inkscape:window-width="637"
     inkscape:window-height="1049"
     inkscape:window-x="1280"
     inkscape:window-y="1"
     inkscape:window-maximized="1"
     inkscape:current-layer="Layer_1" /><style
     type="text/css"
     id="style1">.st0{fill-rule:evenodd;clip-rule:evenodd;}</style><g
     id="g1"
     transform="matrix(0.8,0,0,0.8,12.289,12.172)"><path
       class="st0"
       d="m 74.63,71.74 0.13,-24.69 5.21,-7.65 -0.12,-8.21 c 0,-0.23 -0.19,-0.42 -0.42,-0.42 H 63.31 v -9.44 l 22,-8.91 -22,-8.83 V 1.74 c 0,-2.32 -3.52,-2.32 -3.52,0 V 30.78 H 44.61 c -0.23,0 -0.42,0.19 -0.42,0.42 l -0.12,8.21 5.53,7.49 v 24.85 h -6.49 v -7.4 H 30.64 l 0.04,-8.39 5.21,-7.65 -0.12,-8.21 c 0,-0.23 -0.19,-0.42 -0.42,-0.42 H 0.54 c -0.23,0 -0.42,0.19 -0.42,0.42 L 0,48.3 5.53,55.79 v 65.92 h 24.69 0.12 20.12 V 96.5 c 0,-6.28 5.14,-11.43 11.43,-11.43 v 0 c 6.28,0 11.43,5.14 11.43,11.43 v 25.22 h 19.2 0.12 24.69 l 0.35,-65.76 5.21,-7.65 -0.12,-8.21 c 0,-0.23 -0.19,-0.42 -0.42,-0.42 H 87.52 c -0.23,0 -0.42,0.19 -0.42,0.42 l -0.12,8.21 5.53,7.49 v 8.55 h -12.3 v 7.4 H 74.63 Z M 62.02,38.75 c 2.59,0 4.69,2.1 4.69,4.69 0,2.59 -2.1,4.69 -4.69,4.69 -2.59,0 -4.69,-2.1 -4.69,-4.69 -0.01,-2.58 2.09,-4.69 4.69,-4.69 z m 42.91,7.33 c 2.59,0 4.69,2.1 4.69,4.69 0,2.59 -2.1,4.69 -4.69,4.69 -2.59,0 -4.69,-2.1 -4.69,-4.69 0,-2.59 2.1,-4.69 4.69,-4.69 z M 56.67,61.65 h 10.69 c 0.15,0 0.27,0.12 0.27,0.27 v 9.55 c 0,0.15 -0.12,0.27 -0.27,0.27 H 56.67 c -0.15,0 -0.27,-0.12 -0.27,-0.27 v -9.55 c 0,-0.14 0.12,-0.27 0.27,-0.27 z M 17.95,46.08 c 2.59,0 4.69,2.1 4.69,4.69 0,2.59 -2.1,4.69 -4.69,4.69 -2.59,0 -4.69,-2.1 -4.69,-4.69 -0.01,-2.59 2.1,-4.69 4.69,-4.69 z"
       id="path1" /></g></svg>
