<?xml version="1.0" encoding="UTF-8" standalone="no"?>
<svg
   height="100%"
   width="100%"
   version="1.1"
   viewBox="0 0 2048 2048"
   id="svg4"
   sodipodi:docname="black_royal_queen.svg"
   inkscape:version="1.3 (0e150ed6c4, 2023-07-21)"
   xmlns:inkscape="http://www.inkscape.org/namespaces/inkscape"
   xmlns:sodipodi="http://sodipodi.sourceforge.net/DTD/sodipodi-0.dtd"
   xmlns="http://www.w3.org/2000/svg"
   xmlns:svg="http://www.w3.org/2000/svg">
  <defs
     id="defs4" />
  <sodipodi:namedview
     id="namedview4"
     pagecolor="#ffffff"
     bordercolor="#000000"
     borderopacity="0.25"
     inkscape:showpageshadow="2"
     inkscape:pageopacity="0.0"
     inkscape:pagecheckerboard="0"
     inkscape:deskcolor="#d1d1d1"
     inkscape:zoom="0.41601562"
     inkscape:cx="1022.7981"
     inkscape:cy="1024"
     inkscape:window-width="1920"
     inkscape:window-height="1052"
     inkscape:window-x="0"
     inkscape:window-y="0"
     inkscape:window-maximized="1"
     inkscape:current-layer="svg4" />
  <path
     style="color:#000000"
     d="m 1588,765 q -83,30 -233,49 -150,19 -333,20 -178,0 -326,-18 -148,-18 -233,-49 l 50,-91 q 84,25 218,36 134,11 293,11 159,0 294,-11 135,-11 219,-37 z m 226,668 q -57,0 -97,39 -40,39 -40,97 0,56 40,96 40,40 97,41 56,0 96,-40 40,-40 40,-97 0,-57 -40,-96 -40,-39 -96,-40 z m -1578,0 q -57,0 -96,39 -39,39 -40,97 0,56 39,96 39,40 97,41 57,0 97,-40 40,-40 40,-97 0,-57 -40,-96 -40,-39 -97,-40 z m 1208,110 q -57,0 -96,39 -39,39 -40,97 0,56 39,96 39,40 97,40 57,0 97,-40 40,-40 40,-96 0,-57 -40,-96 -40,-39 -97,-40 z m -840,0 q -57,0 -97,39 -40,39 -40,97 0,56 40,96 40,40 97,40 56,0 96,-40 40,-40 40,-96 0,-57 -40,-96 -40,-39 -96,-40 z M 1640,255 q -49,-43 -220,-72 -171,-29 -394,-29 -227,0 -399,30 -172,30 -217,75 l 63,240 -28,157 -88,153 -85,622 49,19 274,-462 6,550 68,12 209,-553 112,595 h 69 l 112,-593 207,551 69,-12 6,-550 275,463 47,-22 -83,-619 -89,-153 -28,-159 z m -96,32 -30,118 q -195,45 -490,45 -292,0 -488,-45 L 504,286 q 190,58 521,58 159,0 295,-16 136,-16 224,-41 z m -26,299 q -184,51 -490,51 -308,0 -496,-52 l 15,-101 q 189,49 481,49 291,0 474,-48 z m -494,1007 q -57,0 -96,40 -39,40 -40,97 0,56 39,96 39,40 97,40 56,0 96,-40 40,-40 41,-96 0,-57 -40,-97 -40,-40 -97,-40 z"
     fill-rule="nonzero"
     display="block"
     fill="#000000"
     id="path1" />
  <g
     fill-rule="nonzero"
     fill="#ffffff"
     id="g4"
     transform="matrix(1,0,0,-1,0,2020)">
    <path
       style="color:#000000"
       d="m 1588,1255 q -83,-30 -233,-49 -150,-19 -333,-20 -178,0 -326,18 -148,18 -233,49 l 50,91 q 84,-25 218,-36 134,-11 293,-11 159,0 294,11 135,11 219,37 z"
       display="block"
       id="path2" />
    <path
       style="color:#000000"
       d="m 1544,1733 -30,-118 q -195,-45 -490,-45 -292,0 -488,45 l -32,119 q 190,-58 521,-58 159,0 295,16 136,16 224,41 z"
       display="block"
       id="path3" />
    <path
       style="color:#000000"
       d="m 1518,1434 q -184,-51 -490,-51 -308,0 -496,52 l 15,101 q 189,-49 481,-49 291,0 474,48 z"
       display="block"
       id="path4" />
  </g>
</svg>
